<svg width="87" height="28" viewBox="0 0 87 28" fill="none" xmlns="http://www.w3.org/2000/svg">
<path d="M29.96 27.216C28.496 27.216 27.416 26.832 26.72 26.064C26.048 25.272 25.712 24.3 25.712 23.148C25.712 22.644 25.772 22.08 25.892 21.456C26.012 20.808 26.132 20.184 26.252 19.584C26.396 18.984 26.492 18.6 26.54 18.432C26.732 17.592 26.912 16.764 27.08 15.948C27.248 15.132 27.332 14.472 27.332 13.968C27.332 12.744 26.9 12.132 26.036 12.132C25.436 12.132 24.896 12.42 24.416 12.996C23.96 13.572 23.588 14.316 23.3 15.228C22.58 18.996 21.848 22.92 21.104 27H15.92L20.852 4.032C20.012 3.96 18.428 3.756 16.1 3.42L11.024 27H5.83997L10.988 3.096C8.70797 3.192 6.93197 3.78 5.65997 4.86C4.38797 5.94 3.75197 7.8 3.75197 10.44C3.75197 11.328 3.83597 11.952 4.00397 12.312C4.17197 12.648 4.25597 12.84 4.25597 12.888C2.95997 12.888 1.98797 12.624 1.33997 12.096C0.715969 11.544 0.403969 10.644 0.403969 9.396C0.403969 7.716 0.859969 6.168 1.77197 4.752C2.68397 3.336 4.08797 2.196 5.98397 1.332C7.87997 0.467999 10.244 0.0359995 13.076 0.0359995C13.556 0.0359995 14.576 0.144 16.136 0.36C18.992 0.767999 21.212 0.971998 22.796 0.971998C24.86 0.971998 26.312 0.683998 27.152 0.107999C26.792 0.779999 26.492 1.416 26.252 2.016C26.036 2.616 25.76 3.6 25.424 4.968C25.088 6.312 24.656 8.304 24.128 10.944C25.352 9.552 26.78 8.856 28.412 8.856C29.636 8.856 30.608 9.192 31.328 9.864C32.048 10.536 32.408 11.556 32.408 12.924C32.408 13.62 32.324 14.4 32.156 15.264C31.988 16.104 31.748 17.136 31.436 18.36C31.244 19.104 31.064 19.836 30.896 20.556C30.752 21.252 30.68 21.804 30.68 22.212C30.68 22.692 30.788 23.064 31.004 23.328C31.22 23.592 31.592 23.724 32.12 23.724C32.84 23.724 33.416 23.472 33.848 22.968C34.28 22.44 34.712 21.636 35.144 20.556H36.656C35.768 23.196 34.736 24.972 33.56 25.884C32.408 26.772 31.208 27.216 29.96 27.216ZM37.1733 9H42.3573L41.8893 11.232C42.7053 10.512 43.4373 9.96 44.0853 9.576C44.7573 9.192 45.4773 9 46.2453 9C47.0133 9 47.6133 9.264 48.0453 9.792C48.5013 10.32 48.7293 10.956 48.7293 11.7C48.7293 12.396 48.5013 13.008 48.0453 13.536C47.5893 14.064 46.9533 14.328 46.1373 14.328C45.6093 14.328 45.2493 14.208 45.0573 13.968C44.8893 13.704 44.7573 13.332 44.6613 12.852C44.5893 12.54 44.5173 12.312 44.4453 12.168C44.3733 12.024 44.2413 11.952 44.0493 11.952C43.5453 11.952 43.1133 12.06 42.7533 12.276C42.4173 12.468 41.9733 12.816 41.4213 13.32L38.5413 27H33.3573L37.1733 9ZM53.8644 7.056C53.0724 7.056 52.4004 6.78 51.8484 6.228C51.2964 5.676 51.0204 5.004 51.0204 4.212C51.0204 3.42 51.2964 2.748 51.8484 2.196C52.4004 1.62 53.0724 1.332 53.8644 1.332C54.6564 1.332 55.3284 1.62 55.8804 2.196C56.4564 2.748 56.7444 3.42 56.7444 4.212C56.7444 5.004 56.4564 5.676 55.8804 6.228C55.3284 6.78 54.6564 7.056 53.8644 7.056ZM51.4164 27.216C50.2644 27.216 49.3284 26.856 48.6084 26.136C47.9124 25.416 47.5644 24.336 47.5644 22.896C47.5644 22.296 47.6604 21.516 47.8524 20.556L50.3004 9H55.4844L52.8924 21.24C52.7964 21.6 52.7484 21.984 52.7484 22.392C52.7484 22.872 52.8564 23.22 53.0724 23.436C53.3124 23.628 53.6964 23.724 54.2244 23.724C54.9204 23.724 55.5684 23.436 56.1684 22.86C56.7684 22.26 57.2004 21.492 57.4644 20.556H58.9764C58.0884 23.148 56.9484 24.912 55.5564 25.848C54.1644 26.76 52.7844 27.216 51.4164 27.216ZM60.6061 27.216C59.4541 27.216 58.5181 26.856 57.7981 26.136C57.1021 25.416 56.7541 24.336 56.7541 22.896C56.7541 22.296 56.8501 21.516 57.0421 20.556L60.8941 2.52L66.2221 1.8L62.0821 21.24C61.9861 21.6 61.9381 21.984 61.9381 22.392C61.9381 22.872 62.0461 23.22 62.2621 23.436C62.5021 23.628 62.8861 23.724 63.4141 23.724C64.1101 23.724 64.7581 23.436 65.3581 22.86C65.9581 22.26 66.3901 21.492 66.6541 20.556H68.1661C67.2781 23.148 66.1381 24.912 64.7461 25.848C63.3541 26.76 61.9741 27.216 60.6061 27.216ZM69.7958 27.216C68.6438 27.216 67.7078 26.856 66.9878 26.136C66.2918 25.416 65.9438 24.336 65.9438 22.896C65.9438 22.296 66.0398 21.516 66.2318 20.556L70.0838 2.52L75.4118 1.8L71.2718 21.24C71.1758 21.6 71.1278 21.984 71.1278 22.392C71.1278 22.872 71.2358 23.22 71.4518 23.436C71.6918 23.628 72.0758 23.724 72.6038 23.724C73.2998 23.724 73.9478 23.436 74.5478 22.86C75.1478 22.26 75.5798 21.492 75.8438 20.556H77.3558C76.4678 23.148 75.3278 24.912 73.9358 25.848C72.5438 26.76 71.1638 27.216 69.7958 27.216ZM79.5254 27.216C78.3734 27.216 77.4014 27 76.6094 26.568C75.8174 26.112 75.2294 25.536 74.8454 24.84C74.4614 24.12 74.2694 23.376 74.2694 22.608C74.2694 21.816 74.4614 21.132 74.8454 20.556C75.2054 19.956 75.6494 19.524 76.1774 19.26C77.1134 17.58 77.9294 15.888 78.6254 14.184C79.3214 12.456 79.9814 10.596 80.6054 8.604L85.9334 7.884C86.0534 10.956 86.2574 14.28 86.5454 17.856C86.6654 19.296 86.7254 20.34 86.7254 20.988C86.7254 22.452 86.3534 23.652 85.6094 24.588C84.8654 25.524 83.9414 26.196 82.8374 26.604C81.7574 27.012 80.6534 27.216 79.5254 27.216ZM78.3734 24.372C79.2614 24.372 80.0054 24.108 80.6054 23.58C81.2054 23.052 81.5054 22.2 81.5054 21.024C81.5054 20.304 81.4334 19.296 81.2894 18C81.0494 15.264 80.8934 13.428 80.8214 12.492C80.2454 14.388 79.2734 16.656 77.9054 19.296C78.4574 19.584 78.7334 20.004 78.7334 20.556C78.7334 21.012 78.5774 21.42 78.2654 21.78C77.9774 22.14 77.6054 22.32 77.1494 22.32C76.6454 22.32 76.3214 22.164 76.1774 21.852C76.1774 22.716 76.3454 23.352 76.6814 23.76C77.0414 24.168 77.6054 24.372 78.3734 24.372Z" fill="url(#paint0_linear_12_304)"/>
<defs>
<linearGradient id="paint0_linear_12_304" x1="43.5" y1="2" x2="43.5" y2="27" gradientUnits="userSpaceOnUse">
<stop stop-color="#5E308A"/>
<stop offset="0.646993" stop-color="#A21C7D"/>
<stop offset="1" stop-color="#FF006C"/>
</linearGradient>
</defs>
</svg>
